HIERARCHY
ROOT Hips
{
 OFFSET 0.000000 0.000000 0.000000
 CHANNELS 6 Xposition Yposition Zposition Yrotation Xrotation Zrotation
 JOINT Chest
 {
  OFFSET 0.000000 9.303000 0.001900
  CHANNELS 3 Yrotation Xrotation Zrotation
  JOINT Chest2
  {
   OFFSET 0.000000 9.301100 -0.003900
   CHANNELS 3 Yrotation Xrotation Zrotation
   JOINT Chest3
   {
    OFFSET 0.000000 9.262800 0.000000
    CHANNELS 3 Yrotation Xrotation Zrotation
    JOINT Chest4
    {
     OFFSET 0.000000 9.253300 0.000000
     CHANNELS 3 Yrotation Xrotation Zrotation
     JOINT Neck
     {
      OFFSET 0.000000 14.010300 0.000000
      CHANNELS 3 Yrotation Xrotation Zrotation
      JOINT Head
      {
       OFFSET 0.000000 8.657600 -0.008300
       CHANNELS 3 Yrotation Xrotation Zrotation
       End Site
       {
        OFFSET 0.000000 16.540200 -0.004400
       }
      }
     }
     JOINT RightCollar
     {
      OFFSET -2.834100 9.267700 0.000000
      CHANNELS 3 Yrotation Xrotation Zrotation
      JOINT RightShoulder
      {
       OFFSET -13.135200 0.000000 0.000000
       CHANNELS 3 Yrotation Xrotation Zrotation
       JOINT RightElbow
       {
        OFFSET 0.000000 -28.893500 0.000000
        CHANNELS 3 Yrotation Xrotation Zrotation
        JOINT RightWrist
        {
         OFFSET 0.000000 -23.344000 0.000000
         CHANNELS 3 Yrotation Xrotation Zrotation
         End Site
         {
          OFFSET 0.000000 -17.223000 0.000000
         }
        }
       }
      }
     }
     JOINT LeftCollar
     {
      OFFSET 2.834100 9.267700 0.000000
      CHANNELS 3 Yrotation Xrotation Zrotation
      JOINT LeftShoulder
      {
       OFFSET 13.135200 0.000000 0.000000
       CHANNELS 3 Yrotation Xrotation Zrotation
       JOINT LeftElbow
       {
        OFFSET 0.000000 -28.893500 0.000000
        CHANNELS 3 Yrotation Xrotation Zrotation
        JOINT LeftWrist
        {
         OFFSET 0.000000 -23.344000 0.000000
         CHANNELS 3 Yrotation Xrotation Zrotation
         End Site
         {
          OFFSET 0.000000 -17.223000 0.000000
         }
        }
       }
      }
     }
    }
   }
  }
 }
 JOINT RightHip
 {
  OFFSET -7.547200 -0.009500 -0.001000
  CHANNELS 3 Yrotation Xrotation Zrotation
  JOINT RightKnee
  {
   OFFSET 0.000000 -39.762800 0.000900
   CHANNELS 3 Yrotation Xrotation Zrotation
   JOINT RightAnkle
   {
    OFFSET 0.000000 -38.588200 0.001600
    CHANNELS 3 Yrotation Xrotation Zrotation
    JOINT RightToe
    {
     OFFSET 0.000000 -4.693300 10.419700
     CHANNELS 3 Yrotation Xrotation Zrotation
     End Site
     {
      OFFSET 0.000000 -1.379900 5.669300
     }
    }
   }
  }
 }
 JOINT LeftHip
 {
  OFFSET 7.547200 -0.009500 -0.001000
  CHANNELS 3 Yrotation Xrotation Zrotation
  JOINT LeftKnee
  {
   OFFSET 0.000000 -39.762800 0.000900
   CHANNELS 3 Yrotation Xrotation Zrotation
   JOINT LeftAnkle
   {
    OFFSET 0.000000 -38.588200 0.001600
    CHANNELS 3 Yrotation Xrotation Zrotation
    JOINT LeftToe
    {
     OFFSET 0.000000 -4.693300 10.419700
     CHANNELS 3 Yrotation Xrotation Zrotation
     End Site
     {
      OFFSET 0.000000 -1.379900 5.669300
     }
    }
   }
  }
 }
}
MOTION
Frames: 14
Frame Time: 0.008333
0.000000 82.880600 0.000000 0.000000 -5.767877 0.000000 0.000000 11.653817 0.000000 0.000000 -5.885947 0.000000 0.000000 -0.000000 0.000000 0.000000 -0.000000 0.000000 0.000000 12.528835 0.000000 0.000000 0.711642 0.000000 0.000000 -0.000000 0.000000 0.000000 0.000000 -90.000000 0.000000 -2.309062 0.000000 0.000000 2.309062 0.000000 0.000000 -0.000000 0.000000 0.000000 -0.000000 90.000000 0.000000 -2.309062 0.000000 0.000000 2.309062 0.000000 0.000000 8.520406 0.000000 0.000000 1.905762 0.000000 -0.000000 -4.658285 0.000000 0.000000 -0.000000 0.000000 0.000000 8.520406 0.000000 0.000000 1.905762 0.000000 -0.000000 -4.658285 0.000000 0.000000 -0.000000 0.000000
5.279444 46.027228 4.506500 168.038540 -10.668180 0.738779 2.536151 7.617920 0.404355 0.118793 0.365030 0.029590 0.206723 0.638711 0.052338 2.369595 7.172542 0.725369 -1.772075 22.033646 0.135957 -1.927822 -2.158014 0.555000 1.639423 5.500116 -5.968953 -4.275456 -6.593838 -0.757612 -81.303553 -77.743226 93.739554 -12.649937 -4.321059 -5.931441 -9.835315 3.506244 -4.235305 16.983635 -8.819432 9.731425 62.122115 -57.007235 -89.998671 8.900953 1.602676 9.744533 -16.095993 -77.815809 9.356572 -129.377511 85.335966 -130.976497 -7.521637 -8.560858 -0.514297 0.078657 -0.308155 0.039295 6.112683 -76.310313 12.598220 81.397763 77.213114 78.691962 -11.326186 -6.237270 2.532333 0.137739 0.492866 0.062006
5.281501 46.026771 4.507685 168.038012 -10.665957 0.727576 2.539991 7.612370 0.417197 0.118799 0.364301 0.030520 0.206598 0.638417 0.052231 2.367743 7.174052 0.722196 -1.770241 22.044814 0.139670 -1.924504 -2.151491 0.556852 1.641027 5.501123 -5.965933 -4.271908 -6.598565 -0.759336 -81.315533 -77.733470 93.760014 -12.638933 -4.319741 -5.946966 -9.835753 3.507786 -4.233688 16.972265 -8.823234 9.715951 62.129726 -57.022306 -89.998949 8.894946 1.596962 9.742101 -16.148329 -77.814363 9.400887 -129.500982 85.344567 -131.109313 -7.393843 -8.558894 -0.525037 0.097576 -0.308486 0.044133 6.043647 -76.314517 12.667985 81.408613 77.213097 78.698581 -11.324253 -6.241171 2.532724 0.135022 0.496838 0.060161
5.281637 46.026394 4.507323 168.038596 -10.670955 0.729031 2.539639 7.616617 0.416674 0.119243 0.363076 0.031354 0.206838 0.637021 0.053076 2.369366 7.171806 0.721864 -1.767645 22.055709 0.142055 -1.928385 -2.152288 0.556082 1.637132 5.502544 -5.964962 -4.268039 -6.598879 -0.763103 -81.316749 -77.727590 93.762509 -12.632718 -4.317520 -5.953121 -9.826388 3.503897 -4.229522 16.953058 -8.825218 9.701468 62.128568 -57.033778 -89.994150 8.888177 1.592427 9.735036 -16.145558 -77.809812 9.390947 -129.595603 85.351630 -131.207808 -7.343844 -8.563312 -0.529831 0.101328 -0.304951 0.044975 5.992462 -76.312783 12.707309 81.462605 77.205931 78.744639 -11.311790 -6.236800 2.534846 0.121911 0.488699 0.054124
5.280309 46.026031 4.505670 168.047780 -10.682152 0.738125 2.531088 7.623509 0.409978 0.118112 0.365405 0.029591 0.206261 0.638108 0.052293 2.366308 7.167311 0.724048 -1.762861 22.068404 0.141304 -1.923189 -2.137587 0.554215 1.641281 5.500725 -5.965499 -4.266859 -6.593905 -0.767293 -81.319402 -77.722692 93.772154 -12.626609 -4.316589 -5.966069 -9.821253 3.506673 -4.231488 16.922932 -8.842948 9.678214 62.122839 -57.053187 -89.961597 8.885852 1.591398 9.728512 -16.097799 -77.802008 9.335455 -129.620893 85.350222 -131.229109 -7.388691 -8.570325 -0.525891 0.087460 -0.301331 0.041413 6.000916 -76.302379 12.683560 81.483868 77.213466 78.762454 -11.300134 -6.235540 2.533002 0.115944 0.483018 0.054587
5.278945 46.025223 4.505153 168.053570 -10.686224 0.744903 2.518624 7.625716 0.406598 0.117748 0.365370 0.029769 0.208437 0.635679 0.050681 2.360239 7.168518 0.726643 -1.748339 22.091341 0.138978 -1.909224 -2.121021 0.547485 1.647824 5.501924 -5.971436 -4.260537 -6.594683 -0.769532 -81.332168 -77.721630 93.782392 -12.622380 -4.316947 -5.974926 -9.808577 3.506505 -4.237516 16.894622 -8.851163 9.661782 62.117422 -57.066132 -89.930080 8.882967 1.585302 9.717327 -16.081528 -77.799632 9.319348 -129.575903 85.347745 -131.184392 -7.455055 -8.577120 -0.518001 0.086405 -0.295884 0.037974 6.011198 -76.299341 12.663114 81.497322 77.212474 78.774070 -11.303297 -6.232735 2.531942 0.116539 0.479926 0.054904
5.276771 46.024182 4.504527 168.057380 -10.689734 0.754999 2.511956 7.630740 0.398073 0.117739 0.365632 0.029771 0.206586 0.636795 0.050270 2.361782 7.167677 0.726746 -1.743759 22.101229 0.137649 -1.909961 -2.126806 0.547507 1.643381 5.495566 -5.969363 -4.246773 -6.597153 -0.773634 -81.328540 -77.728801 93.774181 -12.617181 -4.322542 -5.997496 -9.806279 3.497792 -4.232291 16.875109 -8.849009 9.644429 62.114430 -57.077197 -89.908327 8.883805 1.583193 9.716565 -16.056122 -77.796969 9.298326 -129.480510 85.342329 -131.088080 -7.549894 -8.588059 -0.509012 0.073105 -0.286771 0.033719 6.032677 -76.297933 12.627305 81.520139 77.209621 78.796095 -11.293956 -6.227063 2.532203 0.109187 0.472944 0.051857
5.274052 46.022983 4.503467 168.065293 -10.695001 0.765791 2.502023 7.636579 0.387609 0.117523 0.365596 0.032526 0.205671 0.638788 0.052527 2.362032 7.171208 0.720541 -1.742134 22.100112 0.137222 -1.900233 -2.100865 0.544949 1.654603 5.490102 -5.969135 -4.253268 -6.600248 -0.772552 -81.315971 -77.733776 93.757318 -12.614083 -4.328355 -6.011670 -9.808040 3.471037 -4.224429 16.861732 -8.834311 9.630606 62.116638 -57.082452 -89.898528 8.884860 1.579954 9.702072 -16.013896 -77.795779 9.256288 -129.401003 85.335038 -131.000649 -7.657313 -8.596943 -0.502557 0.056949 -0.281829 0.028957 6.047915 -76.296089 12.590446 81.548502 77.207214 78.824509 -11.278736 -6.217582 2.530271 0.095906 0.462377 0.048039
5.273681 46.021356 4.503844 168.065667 -10.694003 0.759332 2.501783 7.634793 0.396861 0.116762 0.367438 0.034682 0.206642 0.637350 0.050160 2.359267 7.173549 0.723965 -1.737664 22.113676 0.133296 -1.894623 -2.084959 0.539715 1.662660 5.485485 -5.973072 -4.254001 -6.602691 -0.773748 -81.292551 -77.736474 93.729310 -12.611618 -4.332866 -6.025872 -9.804218 3.448019 -4.227813 16.843315 -8.825005 9.621387 62.107870 -57.083308 -89.883210 8.881166 1.562679 9.689444 -16.061195 -77.796124 9.294588 -129.498745 85.338741 -131.106478 -7.590412 -8.600707 -0.509859 0.075873 -0.280750 0.033656 5.989350 -76.302643 12.640836 81.587555 77.200592 78.859193 -11.270117 -6.214508 2.531556 0.094412 0.458395 0.044207
5.272398 46.019509 4.504447 168.070718 -10.690059 0.754251 2.498435 7.630920 0.406178 0.111509 0.370814 0.032873 0.210711 0.633603 0.049339 2.340058 7.180932 0.729319 -1.723934 22.143612 0.126342 -1.884318 -2.088185 0.532414 1.678531 5.472159 -5.988423 -4.240331 -6.599592 -0.763907 -81.276517 -77.744215 93.702471 -12.611936 -4.335450 -6.031693 -9.783763 3.419544 -4.234019 16.826519 -8.813733 9.614789 62.092894 -57.079363 -89.866807 8.881369 1.541340 9.686164 -16.099889 -77.799508 9.320640 -129.587722 85.342680 -131.202454 -7.520537 -8.604483 -0.515924 0.091257 -0.279148 0.037663 5.918402 -76.311362 12.696704 81.635463 77.193813 78.898132 -11.258284 -6.211815 2.534645 0.085372 0.454429 0.039434
5.270068 46.017674 4.504083 168.075772 -10.690161 0.753408 2.481989 7.640060 0.408945 0.116796 0.366140 0.029802 0.210846 0.635336 0.052241 2.339924 7.179017 0.725588 -1.722367 22.163557 0.125171 -1.875094 -2.075200 0.528737 1.684249 5.455446 -5.993826 -4.213396 -6.595436 -0.753198 -81.235062 -77.756903 93.635766 -12.619158 -4.346281 -6.052412 -9.778585 3.398022 -4.231208 16.822014 -8.798870 9.612781 62.086014 -57.070698 -89.864277 8.893547 1.484500 9.619012 -16.114085 -77.799386 9.330452 -129.588268 85.342959 -131.200672 -7.528297 -8.610330 -0.518445 0.087718 -0.276207 0.037198 5.867356 -76.314062 12.732883 81.664938 77.189376 78.922233 -11.256422 -6.209245 2.532636 0.084973 0.451986 0.037723
5.268866 46.015613 4.504535 168.075864 -10.685938 0.742087 2.477892 7.640832 0.420460 0.116647 0.366582 0.029883 0.209725 0.632879 0.050922 2.340688 7.179684 0.724890 -1.720823 22.188213 0.126950 -1.864875 -2.038342 0.521299 1.689696 5.444719 -5.997979 -4.198265 -6.592696 -0.744918 -81.129708 -77.738444 93.522575 -12.629568 -4.381523 -6.075042 -9.773273 3.384651 -4.229135 16.798932 -8.801775 9.597543 62.069559 -57.063528 -89.819394 8.897805 1.444767 9.574723 -16.176085 -77.799885 9.383546 -129.671212 85.349014 -131.290201 -7.436540 -8.612334 -0.528485 0.103928 -0.275088 0.042843 5.805940 -76.320521 12.791922 81.681253 77.184447 78.935237 -11.261551 -6.217132 2.533223 0.087734 0.459716 0.037266
5.267918 46.013541 4.504688 168.080211 -10.682986 0.725122 2.470051 7.646087 0.437525 0.118903 0.363604 0.029532 0.206718 0.633370 0.051024 2.336611 7.183007 0.726372 -1.719135 22.215385 0.125642 -1.857912 -2.051659 0.516150 1.697077 5.430488 -6.010391 -4.181114 -6.591541 -0.733218 -81.037255 -77.721056 93.423318 -12.625150 -4.398539 -6.089966 -9.765867 3.350192 -4.228839 16.750595 -8.790879 9.570527 61.976607 -57.068631 -89.642411 8.912894 1.341373 9.481493 -16.270149 -77.797051 9.463933 -129.761718 85.352788 -131.388557 -7.347702 -8.614601 -0.538241 0.120928 -0.275023 0.048983 5.665264 -76.329795 12.914815 81.730626 77.171402 78.977623 -11.254908 -6.214378 2.524723 0.081074 0.457340 0.037051
5.262583 46.011357 4.504527 168.090393 -10.675072 0.730284 2.451038 7.651331 0.431191 0.126051 0.352916 0.027813 0.203573 0.641328 0.052909 2.316032 7.218950 0.733473 -1.710207 22.215106 0.116489 -1.851548 -2.038719 0.512575 1.718229 5.381569 -6.038759 -4.162397 -6.590225 -0.717283 -80.908637 -77.694475 93.285701 -12.629360 -4.416049 -6.104162 -9.743568 3.280243 -4.228163 16.746001 -8.769155 9.566980 61.945117 -57.073809 -89.592121 8.962650 1.229239 9.411770 -16.264491 -77.806865 9.443517 -129.789593 85.355490 -131.413748 -7.358984 -8.620727 -0.542708 0.146639 -0.269617 0.052418 5.498646 -76.339331 13.024947 81.832764 77.135972 79.054794 -11.220262 -6.199341 2.516887 0.051958 0.441870 0.025320
